PathFileType	4	(X/Y/Z)	S01_0017_Gait_markers.trc
DataRate	CameraRate	NumFrames	NumMarkers	Units	OrigDataRate	OrigDataStartFrame	OrigNumFrames
250.000000	250.000000	4	54	mm	250.000000	45	364
Frame#	Time	HEAD_ANT			R_HEAD			L_HEAD			C7			R_BACK			L_BACK			STERNUM			R_ACROMION			R_HUM_PROX			R_HUM_ANT			R_HUM_POST			R_ELBOW_LAT			R_ELBOW_MED			R_FOREARM			R_WIRST_LAT			R_WRITS_MED			R_HAND			L_ACROMION			L_HUM_PROX			L_HUM_ANT			L_HUM_POST			L_ELBOW_LAT			L_ELBOW_MED			L_FOREARM			L_WRIST_LAT			L_WIRST_MED			L_HAND			R_ILIAC			SACRUM			L_ILIAC			R_GTROCH			R_THIGH__1			R_THIGH_2			R_THIGH_3			R_THIGH_4			R_SHANK_1			R_SHANK_2			R_SHANK_3			R_SHANK_4			R_HEEL			R_FOOT_LAT			R_FOOT_MED			L_GTROCH			L_THIGH_1			L_THIGH_2			L_THIGH_3			L_THIGH_4			L_SHANK_1			L_SHANK_2			L_SHANK_3			L_SHANK_4			L_HEEL			L_FOOT_LAT			L_FOOT_MED			
		X1	Y1	Z1	X2	Y2	Z2	X3	Y3	Z3	X4	Y4	Z4	X5	Y5	Z5	X6	Y6	Z6	X7	Y7	Z7	X8	Y8	Z8	X9	Y9	Z9	X10	Y10	Z10	X11	Y11	Z11	X12	Y12	Z12	X13	Y13	Z13	X14	Y14	Z14	X15	Y15	Z15	X16	Y16	Z16	X17	Y17	Z17	X18	Y18	Z18	X19	Y19	Z19	X20	Y20	Z20	X21	Y21	Z21	X22	Y22	Z22	X23	Y23	Z23	X24	Y24	Z24	X25	Y25	Z25	X26	Y26	Z26	X27	Y27	Z27	X28	Y28	Z28	X29	Y29	Z29	X30	Y30	Z30	X31	Y31	Z31	X32	Y32	Z32	X33	Y33	Z33	X34	Y34	Z34	X35	Y35	Z35	X36	Y36	Z36	X37	Y37	Z37	X38	Y38	Z38	X39	Y39	Z39	X40	Y40	Z40	X41	Y41	Z41	X42	Y42	Z42	X43	Y43	Z43	X44	Y44	Z44	X45	Y45	Z45	X46	Y46	Z46	X47	Y47	Z47	X48	Y48	Z48	X49	Y49	Z49	X50	Y50	Z50	X51	Y51	Z51	X52	Y52	Z52	X53	Y53	Z53	X54	Y54	Z54	

46	0.18	314.42431640625	1708.813598632812	-333.3119506835934	256.2799072265625	1656.515869140625	-256.7781066894528	254.8268737792969	1661.923095703125	-404.2048645019528	116.8237075805664	1490.3564453125	-340.8053283691403	39.5283088684082	1291.421264648438	-286.4923706054685	45.98325729370117	1300.493774414062	-420.4552612304685	291.9561157226562	1325.374389648438	-336.012023925781	182.7889556884766	1434.3701171875	-166.1111907958981	132.5384063720703	1271.834350585938	-85.65156555175753	190.1462097167969	1184.165649414062	-80.07556152343723	68.68262481689453	1190.3564453125	-82.42305755615207	110.3799057006836	1082.945678710938	-76.54505920410132	99.98123168945312	1080.859375	-156.0328216552732	191.1223449707031	892.32177734375	-62.50351333618144	227.6228332519531	822.2725830078125	-99.0363235473631	154.4148101806641	806.7064819335938	-69.5054397583006	214.3163299560547	735.8389282226562	-42.04800796508773	201.9420166015625	1450.19140625	-505.5013427734372	189.6253509521484	1285.340454101563	-603.4028930664059	254.5058898925781	1206.94384765625	-597.398498535156	136.3154602050781	1206.043701171875	-633.5213623046873	199.3625335693359	1103.06396484375	-637.636779785156	142.9512481689453	1092.724975585938	-584.596984863281	321.9117126464844	939.9819335937501	-605.5593261718748	357.6968688964844	886.2382202148439	-549.6571044921873	319.0979919433594	856.0502929687501	-614.091369628906	401.1775817871094	812.7871093750001	-592.2387084960935	184.2674865722656	1036.782592773438	-182.1835784912107	59.93075561523438	1015.477355957031	-350.7530517578123	176.6040649414062	1035.671630859375	-528.2042236328123	161.5706787109375	889.9480590820312	-167.4582214355467	285.2268981933594	632.2102661132812	-199.5772705078124	332.5956726074219	666.7103271484375	-195.5320587158202	371.4729919433594	573.4486694335938	-235.2582244873046	309.7998352050781	556.217529296875	-222.4573211669921	361.5514831542969	340.7684631347657	-221.3659515380859	418.9223937988281	332.6077270507813	-238.3542327880859	432.6484375	249.5607604980469	-256.9649658203124	370.0143432617188	241.1266021728516	-243.9405670166015	367.321044921875	36.07949066162116	-332.5627136230469	530.2310180664062	25.65838623046881	-250.9188385009766	580.3445434570312	51.60498809814461	-339.489013671875	130.8086242675781	928.6060180664064	-530.5932617187498	144.9117431640625	636.2531738281251	-514.1267700195311	97.92073822021484	669.6931152343751	-527.1883544921874	58.51130676269531	574.0370483398439	-498.5240783691405	120.7590179443359	560.2518310546876	-492.4450073242186	-52.75638961791992	329.0186462402345	-480.9689636230468	-111.2378234863281	344.1037902832032	-485.7862854003906	-163.2933807373047	276.0157470703126	-466.0769042968749	-107.346321105957	245.3845214843751	-454.9808044433593	-303.0885314941406	150.5317840576173	-393.3714599609374	-175.1430206298828	22.33070755004892	-439.7213134765625	-140.9430389404297	31.88938903808601	-336.4854736328125	
47	0.184	320.0210571289062	1709.389526367188	-332.5573120117184	261.9052124023438	1657.028198242188	-256.0001220703122	260.3085021972656	1662.3662109375	-403.4925537109372	122.8344497680664	1490.92822265625	-340.1953735351559	45.60774993896484	1291.870849609375	-285.8653564453122	51.9477424621582	1300.810668945312	-420.0061035156247	297.881591796875	1326.05078125	-335.3460388183591	188.6740875244141	1434.569091796875	-165.4862823486325	138.5867156982422	1272.0107421875	-85.15633392333956	196.2528533935547	1184.452392578125	-79.61846923828098	74.93608856201172	1190.330200195312	-82.00704193115207	116.6643676757812	1082.990844726562	-76.24399566650366	106.2185363769531	1080.981811523438	-155.7011108398435	196.9953308105469	892.1268310546875	-62.31162261962871	233.7395477294922	822.4681396484375	-97.23923492431622	160.5282135009766	806.8729248046875	-69.11338043212872	220.6803588867188	735.8944091796875	-41.67778015136702	207.7834014892578	1450.740112304688	-504.9743652343747	195.2197265625	1285.9296875	-602.9637451171872	259.9595947265625	1207.214233398438	-597.0429077148435	141.5407104492188	1206.689453125	-632.874084472656	204.3563079833984	1103.698486328125	-637.1015014648435	148.2248382568359	1093.38623046875	-583.8888549804685	326.3024597167969	939.8814086914064	-605.4399414062498	361.9939270019531	885.8598632812501	-549.9122924804685	323.0068054199219	856.0388793945314	-614.4882202148435	404.939453125	812.3049316406251	-592.6197509765623	190.8820953369141	1037.275756835938	-181.762985229492	66.01000213623047	1015.891845703125	-350.6647033691404	183.4251556396484	1036.083129882813	-527.8019409179685	167.9150085449219	891.2880249023438	-167.0126342773436	292.5115966796875	633.7794799804688	-199.3300933837889	339.8175354003906	668.4833984375	-196.4724121093749	378.8838500976562	574.9803466796875	-235.1949005126952	317.184814453125	557.5701293945312	-222.1776428222655	366.6307373046875	341.5379943847657	-220.4081268310546	423.6928405761719	332.4943237304688	-238.5412597656249	436.0564575195312	249.1012115478516	-257.1262207031249	373.517822265625	241.6110839843751	-243.0675964355468	367.8637084960938	36.57816696166999	-332.1141967773438	530.7858276367188	24.2649650573731	-250.8308563232422	580.8251953125	49.27670288085945	-340.1034851074219	137.4183959960938	928.4636230468751	-530.4843139648435	152.8382263183594	636.3322753906251	-513.9913940429686	105.4678726196289	669.3197631835939	-526.7722167968749	66.70938110351562	573.4346923828126	-498.6218872070311	129.0616302490234	559.8602294921876	-492.9992675781249	-46.63628387451172	329.6906738281251	-481.9118347167968	-105.0419769287109	345.517547607422	-486.6733703613281	-157.6311950683594	277.9588317871095	-466.8968505859374	-102.3318786621094	246.7482452392579	-456.1539916992187	-298.3167724609375	155.0494537353516	-393.7770080566406	-174.5669403076172	22.82094573974619	-439.555419921875	-140.7858123779297	32.07994461059577	-335.6613159179688	
48	0.188	325.4727172851562	1709.887329101562	-331.8967590332027	267.6678161621094	1657.503051757812	-255.3406829833981	265.6289672851562	1662.8486328125	-402.7234191894528	128.8976135253906	1491.388061523438	-339.5243225097653	51.4964599609375	1292.111450195312	-285.3764343261716	57.98677825927734	1301.092529296875	-419.4775390624997	303.8296508789062	1326.619384765625	-334.7741394042966	194.6225433349609	1434.880249023438	-165.0023956298825	144.6388549804688	1272.27001953125	-84.87649536132784	202.2999267578125	1184.7392578125	-79.16435241699192	81.15686798095703	1190.516357421875	-81.66679382324192	122.9096527099609	1083.325439453125	-75.97836303710913	107.0639801025391	1082.424926757812	-157.935836791992	203.2818450927734	892.2879028320312	-62.22209548950175	239.6468811035156	822.4191284179688	-99.09610748290997	166.4332580566406	807.2288208007812	-69.18624877929669	226.6986999511719	736.0484619140625	-41.56845474243148	213.6592102050781	1451.303100585938	-504.3017578124997	200.6769256591797	1286.544677734375	-602.4479370117184	265.1720275878906	1207.77685546875	-596.4218139648435	146.8593292236328	1207.481079101563	-632.2612304687498	209.570068359375	1104.324340820313	-636.6300048828123	153.8195495605469	1093.936889648438	-582.6271972656248	330.6198425292969	939.8936767578126	-605.649475097656	366.0325012207031	885.6480712890626	-550.222229003906	327.1076049804688	855.9666137695314	-614.5556640624998	408.763427734375	811.9047851562501	-593.0485839843748	196.875244140625	1037.690185546875	-181.5666503906248	71.39455413818359	1016.676940917969	-351.3144226074216	190.6851043701172	1036.680053710938	-527.2504272460935	174.2890472412109	892.5376586914062	-166.4516448974607	300.2276611328125	635.4046630859375	-199.2256622314452	347.1808166503906	670.10986328125	-197.5879058837889	386.3941040039062	577.2091064453125	-234.6921997070311	324.5484008789062	559.1483154296875	-221.8775329589843	371.5433654785156	342.0348815917969	-219.7797241210937	428.2773742675781	332.2794494628907	-238.8274536132812	439.3164672851562	248.7864379882813	-257.2720642089843	376.8578796386719	241.9780883789063	-242.4063873291015	368.3852233886719	36.90050888061531	-331.7218933105469	531.5521240234375	23.49928665161138	-250.1351470947266	581.407470703125	46.83935546875008	-340.7296752929688	143.7466735839844	928.5630493164064	-530.5988769531248	160.6550140380859	636.2327270507814	-514.0043334960936	113.1351776123047	669.1598510742189	-526.6167602539061	74.97413635253906	572.9733886718751	-499.4081115722655	137.2889099121094	559.6674194335939	-493.4274902343749	-40.28510665893555	330.7265625000001	-483.3095397949218	-98.43390655517578	347.1459960937501	-487.2793579101562	-150.5525207519531	280.4459838867189	-467.7995910644531	-97.06333160400391	247.9763031005861	-457.5725097656249	-293.3102416992188	159.7048950195313	-394.4358520507812	-173.6325531005859	23.29209899902353	-439.1756286621094	-140.1949615478516	32.33890533447273	-336.0877075195312	
49	0.192	331.1021728515625	1710.352661132812	-331.1307373046871	273.0982360839844	1658.001953125	-254.6484985351559	271.1895751953125	1663.567993164062	-402.0392456054684	134.8395080566406	1492.162963867188	-338.8147277832028	57.36164093017578	1292.325073242188	-284.7147521972653	64.04782104492188	1301.1767578125	-419.0847167968747	309.3086547851562	1327.068603515625	-334.1200561523435	200.5983276367188	1435.278564453125	-164.3524932861325	150.7377471923828	1272.61669921875	-84.50492095947237	208.5228424072266	1185.085815429688	-78.7829513549802	87.26806640625	1190.753173828125	-81.23728179931614	128.4045257568359	1083.948486328125	-75.70127105712866	118.6817932128906	1081.99609375	-155.2413330078123	209.4986724853516	892.5602416992188	-62.12046432495097	245.7074432373047	822.6251220703125	-99.08640289306622	172.7446899414062	807.3374633789062	-68.84766387939435	232.3191528320312	736.3319091796875	-41.73858642578109	219.4651336669922	1452.005126953125	-503.7221374511715	206.0772857666016	1287.142822265625	-601.8192749023434	270.5933837890625	1208.333374023438	-596.1503906249998	152.1305541992188	1208.137939453125	-631.8634643554685	214.6730651855469	1104.891967773438	-636.0776367187498	159.0903778076172	1094.799072265625	-582.0820312499998	335.0320739746094	939.8974609375001	-605.6571655273435	370.091796875	885.3688964843751	-550.3645019531248	330.92724609375	856.0013427734376	-615.0278320312498	412.2843017578125	811.3624877929689	-593.632141113281	203.0741577148438	1038.435668945312	-181.0955810546873	77.54869842529297	1017.301940917969	-351.0656433105466	200.0133666992188	1037.16162109375	-526.481994628906	180.5250396728516	893.70849609375	-166.409957885742	307.6686706542969	636.7747192382812	-198.9091644287108	354.7267761230469	671.357666015625	-198.1522064208983	393.2708129882812	578.0053100585938	-235.4234771728514	331.8860168457031	560.2908935546875	-220.9732818603514	376.1717224121094	342.0608215332032	-219.3068084716796	432.6137084960938	332.0715637207032	-238.9648437499999	442.4264526367188	248.1534729003907	-257.6391601562499	380.2276000976562	242.1819000244141	-242.0461730957031	368.8919677734375	37.20132827758796	-331.4588012695312	532.14501953125	22.85115623474127	-249.4789276123047	582.15234375	44.630657196045	-341.5558166503906	150.4641571044922	928.5661010742189	-530.4946289062498	168.9557189941406	636.1389160156251	-514.0693359374999	121.3688735961914	668.9123535156251	-526.7191772460936	83.53151702880859	572.2261352539064	-499.5385742187499	145.9420166015625	559.3468627929689	-494.0851135253905	-33.83232116699219	331.553680419922	-484.2567138671874	-92.05707550048828	348.7103271484376	-488.3648376464843	-145.5821228027344	282.6310424804689	-468.6878967285156	-91.48252105712891	249.6589355468751	-458.8420410156249	-288.0644836425781	164.0203857421876	-394.7655944824218	-172.7558288574219	23.81806755065928	-438.9017028808594	-139.4818725585938	32.80543899536141	-336.3660888671875	
